<svg width="155" height="145" viewBox="0 0 155 145" fill="none" xmlns="http://www.w3.org/2000/svg">
<path fill-rule="evenodd" clip-rule="evenodd" d="M73.4884 2.073L70.8534 4.145V43.073C70.8534 80.667 70.9224 82.069 72.8534 84C74.7254 85.872 76.1864 86 95.6434 86C124.245 86 132.542 83.592 142.869 72.292C165.717 47.293 153.146 8.075 120.054 1.115C117.139 0.502002 106.062 0 95.4394 0C77.4114 0 75.9474 0.138002 73.4884 2.073ZM121.471 29.562C126.918 33.633 128.353 36.607 128.353 43.823C128.353 51.71 126.545 54.885 120.287 57.985C115.538 60.339 100.155 60.902 98.0534 58.8C96.3414 57.088 96.3854 29.877 98.1034 28.126C98.9924 27.22 102.146 26.946 109.033 27.176C116.921 27.44 119.223 27.882 121.471 29.562ZM0.291361 29.3C0.0173611 30.016 -0.0816393 36.653 0.0733607 44.05L0.353361 57.5L4.06236 57.808L7.77036 58.116L8.06236 49.886L8.35336 41.657L12.1384 47.366C14.2204 50.506 16.3674 52.8 16.9114 52.464C17.4544 52.129 19.4634 49.53 21.3764 46.69L24.8534 41.527V49.763V58H28.8804H32.9064L32.6304 43.25L32.3534 28.5L28.6514 28.192C25.2814 27.913 24.6794 28.272 21.9434 32.192C15.5074 41.417 16.6024 41.188 12.2464 34.219C8.59336 28.374 8.13136 28 4.57436 28C2.39136 28 0.579361 28.55 0.291361 29.3ZM39.0774 43.25L39.3534 58.5L42.2444 58.83C45.7224 59.227 46.8174 57.778 46.8384 52.75C46.8604 47.396 49.8244 47.688 54.0714 53.461C57.0494 57.509 57.7474 57.926 61.6034 57.961C63.9414 57.982 65.8534 57.727 65.8534 57.394C65.8534 57.061 64.5034 55.083 62.8534 53C61.2034 50.917 59.8534 48.963 59.8534 48.658C59.8534 48.353 60.9784 46.889 62.3534 45.405C64.1364 43.482 64.8534 41.583 64.8534 38.788C64.8534 30.439 61.0164 28 47.8774 28H38.8014L39.0774 43.25ZM56.2464 37.25C58.1424 40.275 55.8104 42.5 50.7444 42.5C46.9114 42.5 46.3114 42.205 46.0244 40.177C45.4234 35.937 46.4974 34.859 50.9924 35.192C53.6144 35.386 55.5544 36.146 56.2464 37.25ZM128.865 88.757C125.847 90.182 120.747 91.607 117.531 91.924L111.685 92.5L122.236 100.212L132.788 107.924L128.916 117.212C126.786 122.32 123.386 130.263 121.36 134.862C119.124 139.94 118.038 143.585 118.595 144.142C119.1 144.647 125.547 144.934 132.921 144.78C144.417 144.54 146.373 144.266 146.643 142.859C146.875 141.651 145.098 140.488 139.905 138.451C136.027 136.929 132.853 135.281 132.853 134.788C132.853 134.296 135.787 128.558 139.373 122.037C147.516 107.232 148.381 104.875 146.793 101.821C144.948 98.272 135.75 85.989 135.008 86.083C134.648 86.129 131.884 87.332 128.865 88.757ZM94.7404 92.781L83.1274 93.061L80.3784 99.531C78.8654 103.089 77.5244 106 77.3974 106C77.2704 106 69.5614 103.545 60.2654 100.545C50.9694 97.545 43.1054 95.407 42.7894 95.795C41.5184 97.354 32.8534 117.109 32.8534 118.446C32.8534 121.884 35.4464 120.855 41.2314 115.121C44.6284 111.755 47.8964 109 48.4944 109C49.0924 109 56.2804 111.925 64.4674 115.5C79.8774 122.229 81.6654 122.706 84.9234 120.962C86.6674 120.029 107.422 93.001 106.667 92.647C106.494 92.566 101.127 92.626 94.7404 92.781Z" fill="white"/>
</svg>
